<svg width="1635" height="1635" viewBox="0 0 1635 1635" fill="none" xmlns="http://www.w3.org/2000/svg">
<path d="M732.021 1372.92C766.167 1379.6 801.071 1381.85 835.864 1381.66C1067.61 1380.35 1124.42 1368.04 1280.69 1293.85C1299.25 1285.05 1322.47 1266.5 1337.06 1255.51H421.662C494.421 1302.73 601.399 1347.38 732.021 1372.92Z" fill="#BD7F72"/>
<path d="M356.558 472.025C297.655 503.027 193.698 611.052 201.831 798.39C209 963.5 234.766 1134.19 421.662 1255.51H1337.06C1427.76 1187.11 1439.06 1092.03 1435.42 1042.74C1432.88 981.018 1382.49 845.738 1201.22 798.39C1049.88 758.862 878.988 624.27 778.944 530.872C744.564 498.777 709.624 465.865 665.133 450.613C593.185 425.947 481.447 414.234 356.558 472.025Z" fill="#E0EAF6"/>
<rect x="381.923" y="1024.98" width="138.663" height="189.393" fill="#6191E5"/>
<rect x="293.991" y="1057.11" width="130.207" height="128.516" rx="64.2582" fill="#6191E5"/>
<circle cx="359.94" cy="1121.37" r="32.1291" fill="#E0EAF6"/>
<path fill-rule="evenodd" clip-rule="evenodd" d="M875.697 856.998L873.161 926.329V936.207L894.298 954.808H958.557L996.464 835.015L993.29 773.293L875.697 856.998Z" fill="#FFB0B4"/>
<path d="M875.697 743.432V807.69V856.998L993.29 773.293L989.84 706.23L986.458 687.629V676.637L978.849 673.255L875.697 743.432Z" fill="#FE7C70"/>
<path d="M788.611 866.875C767.642 877.021 739.571 899.005 724.352 924.37L705.751 972.563L742.108 1219.45L1202.06 1217.76L1262.94 1219.45C1250.26 1147.58 1219.82 984.062 1199.53 945.507C1179.23 906.952 1146.26 877.867 1118.36 864.339L995.759 812.763C995.619 813.032 995.421 810.396 980.54 848.274C959.946 900.696 921.355 938.097 904.445 931.134C881.447 921.664 874.712 868.835 875.697 842.625V827.137C855.969 837.001 809.579 856.729 788.611 866.875Z" fill="#3E71F1"/>
<path d="M1000.83 690.786C963.613 775.991 891.188 825.746 834.589 801.026C777.989 776.307 762.273 687.196 799.486 601.991C836.698 516.785 912.748 467.752 969.347 492.471C1025.95 517.19 1038.04 605.58 1000.83 690.786Z" fill="#FEB3AE"/>
<ellipse cx="766.921" cy="537.923" rx="35.4557" ry="56.3412" transform="rotate(17.3406 766.921 537.923)" fill="#002D54"/>
<path d="M1062.55 521.91C1080.82 566.553 1036.91 615.479 1012.67 634.362C1009.85 635.489 1003.54 637.575 1000.83 636.898C997.45 636.053 972.085 612.379 955.175 592.932C941.646 577.375 925.864 548.121 919.663 535.438C914.59 537.975 916.281 537.975 860.478 575.177C804.675 612.379 752.536 600.26 740.417 586.168L743.799 570.104L776.773 540.511C775.364 537.975 779.986 523.77 809.748 487.244C846.95 441.587 904.444 422.141 944.183 431.441C983.922 440.742 1039.72 466.107 1062.55 521.91Z" fill="#002D54"/>
<path d="M889.421 1106.42L868.303 1125.5C855.91 1136.7 844.975 1149.36 834.055 1162.01L833.727 1162.39C832.389 1163.93 831.373 1165.01 830.886 1165.34C828.349 1167.03 825.813 1176.33 824.967 1179.71C824.7 1180.78 824.25 1182.93 823.75 1185.43C822.334 1192.48 824.353 1199.78 829.093 1205.2C831.925 1208.44 835.591 1210.83 839.692 1212.13L843.784 1213.42C847.563 1214.62 851.504 1215.22 855.468 1215.22H1164.95C1167.71 1215.22 1170.45 1215.24 1173.21 1215.27C1191.17 1215.46 1261.72 1216.17 1261.25 1215.22C1251.92 1196.57 1237.21 1181.16 1221.55 1167.4L1217.28 1163.65L1203.41 1154.29C1188.47 1144.22 1172.43 1135.86 1155.61 1129.39C1150.5 1127.43 1145.34 1125.62 1140.08 1124.13C1133.77 1122.36 1125.97 1120.36 1125.97 1121.37C1125.97 1124.75 1125.12 1158.57 1122.58 1159.42C1120.05 1160.26 972.917 1159.42 972.088 1159.42C972.063 1159.42 972.072 1159.42 972.047 1159.42C967.815 1159.42 963.833 1157.42 961.307 1154.02L940.801 1126.44L929.516 1108.39C928.586 1106.9 927.52 1105.5 926.33 1104.22L922.363 1099.92C919.564 1096.89 915.626 1095.16 911.499 1095.16C909.087 1095.16 906.712 1095.75 904.581 1096.88L898.256 1100.23C895.066 1101.92 892.099 1103.99 889.421 1106.42Z" fill="#FFB0B3"/>
<rect x="302.446" y="1214.38" width="1097.46" height="50.7302" fill="#D18C7D"/>
<path d="M793.137 925.061L619.51 923.524H485.246C476.645 923.524 468.568 927.661 463.543 934.641C458.965 940.999 457.405 949.044 459.276 956.652L515.83 1186.69C517.817 1194.77 522.437 1201.96 528.963 1207.13C535.584 1212.37 543.782 1215.22 552.228 1215.22H870.706C877.087 1215.22 883.143 1212.41 887.253 1207.52C891.683 1202.26 893.348 1195.21 891.738 1188.52L836.619 959.628C834.534 950.971 829.936 943.125 823.403 937.076C815.161 929.444 804.369 925.16 793.137 925.061Z" fill="white"/>
<ellipse cx="667.711" cy="1074.8" rx="32.25" ry="36.3566" transform="rotate(-8.03593 667.711 1074.8)" fill="#DFE9F6"/>
<path d="M355.573 739.571C344.75 759.187 340.917 805.238 340.354 825.812C340.354 858.956 355.855 897.962 364.873 912.899C379.167 936.573 397.341 974.283 405.457 922.2C415.603 857.096 462.106 825.812 469.716 815.666C477.325 805.52 488.317 787.765 488.317 754.79C488.317 671.085 488.317 687.995 540.738 606.827C593.159 525.659 644.735 520.586 648.962 415.743C653.19 310.901 590.623 256.789 535.665 255.098C480.707 253.407 405.457 272.853 394.466 376.005C383.474 479.156 405.457 567.088 405.457 617.819C405.457 668.549 369.101 715.051 355.573 739.571Z" fill="#F2F3F7"/>
<rect x="1109.43" y="1013.3" width="7.33773" height="109.864" rx="3.66887" transform="rotate(-6.15847 1109.43 1013.3)" fill="#002D5A"/>
<ellipse cx="1005.41" cy="664.664" rx="26.2106" ry="44.8117" transform="rotate(17.375 1005.41 664.664)" fill="#FEB3AF"/>
</svg>
